<svg width="599" height="358" viewBox="0 0 599 358" fill="none" xmlns="http://www.w3.org/2000/svg">
                <g clip-path="url(#clip0_60_11952)">
                    <path
                        d="M458.609 353.913C450.94 347.436 446.282 337.204 447.503 327.243C448.725 317.282 456.291 308.124 466.106 306.009C475.92 303.894 487.108 309.749 490.089 319.332C491.729 300.856 493.62 281.607 503.447 265.873C512.345 251.626 527.757 241.432 544.461 239.609C561.164 237.785 578.75 244.673 589.167 257.851C599.584 271.028 602.135 290.186 594.839 305.315C589.464 316.46 579.562 324.755 569.187 331.503C535.663 353.124 495.454 361.916 455.96 356.262L458.609 353.913Z"
                        fill="#F2F2F2" />
                    <path
                        d="M572.649 245.055C558.867 256.276 546.224 268.826 534.901 282.523C517.182 303.885 502.843 327.836 492.385 353.541C491.619 355.416 494.665 356.233 495.422 354.378C512.534 312.602 539.852 275.781 574.877 247.282C576.45 246.002 574.209 243.786 572.649 245.055Z"
                        fill="white" />
                    <path
                        d="M192.828 352.153C203.361 343.257 209.759 329.203 208.081 315.521C206.403 301.84 196.011 289.262 182.531 286.357C169.051 283.452 153.684 291.494 149.59 304.657C147.336 279.28 144.74 252.84 131.242 231.23C119.02 211.662 97.852 197.661 74.9103 195.156C51.9685 192.651 27.8137 202.112 13.5058 220.211C-0.802176 238.311 -4.30542 264.624 5.7155 285.404C13.0976 300.712 26.6979 312.104 40.9477 321.373C86.4094 350.941 142.805 363.273 196.466 355.38"
                        fill="#F2F2F2" />
                    <path
                        d="M36.1923 202.636C55.1221 218.047 72.4882 235.284 88.0394 254.097C103.593 272.89 117.286 293.148 128.927 314.584C135.434 326.608 141.279 338.979 146.436 351.641C147.488 354.217 143.303 355.338 142.264 352.791C133.129 330.468 121.827 309.094 108.521 288.976C95.2788 268.93 80.123 250.215 63.2659 233.095C53.7315 223.416 43.6719 214.269 33.1326 205.694C30.9723 203.936 34.0499 200.892 36.1923 202.636Z"
                        fill="white" />
                    <path
                        d="M429.972 357.177H178.667V99.4453C178.667 44.6109 223.298 0 278.156 0H330.483C385.342 0 429.972 44.6109 429.972 99.4453V357.177Z"
                        fill="#F2F2F2" />
                    <path
                        d="M377.645 357.177H178.667V99.4446C178.612 78.4333 185.269 57.953 197.667 40.9857C198.124 40.363 198.58 39.7484 199.05 39.1405C205.047 31.2785 212.184 24.3546 220.225 18.5972C220.679 18.2669 221.135 17.9423 221.598 17.6177C228.326 12.9636 235.604 9.15907 243.266 6.29054C243.721 6.11816 244.185 5.94543 244.648 5.77976C251.578 3.30778 258.761 1.61449 266.066 0.731153C266.519 0.669318 266.984 0.620932 267.449 0.572544C274.567 -0.188244 281.747 -0.188244 288.865 0.572544C289.329 0.620932 289.794 0.669312 290.252 0.731815C297.555 1.61521 304.737 3.3083 311.665 5.77979C312.128 5.94546 312.591 6.11818 313.048 6.2909C320.616 9.12324 327.808 12.871 334.465 17.4507C334.927 17.7682 335.39 18.0929 335.846 18.4175C340.353 21.6333 344.587 25.2158 348.503 29.1286C351.644 32.2671 354.571 35.6126 357.264 39.1425C357.733 39.7484 358.189 40.363 358.645 40.9847C371.044 57.9522 377.7 78.4329 377.645 99.4446V357.177Z"
                        fill="#CCCCCC" />
                    <path
                        d="M361.465 241.903C367.549 241.903 372.481 236.973 372.481 230.892C372.481 224.811 367.549 219.881 361.465 219.881C355.381 219.881 350.449 224.811 350.449 230.892C350.449 236.973 355.381 241.903 361.465 241.903Z"
                        fill="#D61C4E" />
                    <path d="M409.385 349.458H400.944L396.928 316.914L409.386 316.915L409.385 349.458Z" fill="#FFB8B8" />
                    <path
                        d="M394.914 347.047H411.193V357.292H384.665C384.665 355.947 384.93 354.614 385.445 353.371C385.96 352.128 386.715 350.999 387.667 350.048C388.618 349.096 389.748 348.342 390.992 347.827C392.235 347.312 393.568 347.047 394.914 347.047Z"
                        fill="#2F2E41" />
                    <path d="M451.384 349.458H442.943L438.927 316.914L451.385 316.915L451.384 349.458Z" fill="#FFB8B8" />
                    <path
                        d="M436.913 347.047H453.192V357.292H426.664C426.664 355.947 426.929 354.614 427.444 353.371C427.959 352.128 428.714 350.999 429.666 350.048C430.617 349.096 431.747 348.342 432.991 347.827C434.234 347.312 435.567 347.047 436.913 347.047Z"
                        fill="#2F2E41" />
                    <path
                        d="M367.041 233.073C366.433 232.179 366.03 231.162 365.858 230.095C365.686 229.028 365.751 227.936 366.047 226.897C366.343 225.857 366.863 224.895 367.572 224.078C368.28 223.262 369.159 222.61 370.146 222.17L398.84 143.118L412.959 150.82L380.197 226.365C380.827 228.072 380.809 229.951 380.146 231.646C379.483 233.34 378.222 234.733 376.6 235.56C374.978 236.387 373.109 236.59 371.347 236.132C369.586 235.674 368.053 234.585 367.041 233.073Z"
                        fill="#FFB8B8" />
                    <path
                        d="M447.072 247.927C446.134 247.389 445.325 246.653 444.703 245.769C444.08 244.885 443.659 243.876 443.469 242.812C443.279 241.748 443.325 240.655 443.604 239.61C443.882 238.566 444.386 237.595 445.08 236.767L436.191 153.144L452.259 153.877L455.953 236.132C457.269 237.39 458.077 239.086 458.224 240.9C458.372 242.714 457.849 244.519 456.754 245.973C455.659 247.426 454.069 248.428 452.285 248.789C450.5 249.149 448.645 248.842 447.072 247.927Z"
                        fill="#FFB8B8" />
                    <path
                        d="M421.438 128.477C430.778 128.477 438.349 120.909 438.349 111.574C438.349 102.239 430.778 94.6709 421.438 94.6709C412.099 94.6709 404.528 102.239 404.528 111.574C404.528 120.909 412.099 128.477 421.438 128.477Z"
                        fill="#FFB8B8" />
                    <path
                        d="M446.964 228.909H395.982L396.044 228.513C396.135 227.92 405.13 169.025 398.496 149.758C397.83 147.864 397.889 145.791 398.66 143.938C399.432 142.086 400.862 140.583 402.675 139.721C412.157 135.258 430.358 129.762 445.72 143.1C447.981 145.095 449.746 147.588 450.877 150.382C452.007 153.177 452.472 156.196 452.233 159.201L446.964 228.909Z"
                        fill="#1CD6CE" />
                    <path
                        d="M405.774 177.729L382.821 173.074L393.58 147.59C394.224 145.122 395.821 143.01 398.021 141.717C400.22 140.424 402.843 140.056 405.314 140.694C407.785 141.331 409.902 142.922 411.201 145.118C412.5 147.314 412.874 149.935 412.242 152.406L405.774 177.729Z"
                        fill="#1CD6CE" />
                    <path
                        d="M435.17 186.371L433.791 154.754C432.744 148.811 436.148 143.192 441.383 142.274C446.619 141.359 451.732 145.481 452.783 151.468L457.97 181.011L435.17 186.371Z"
                        fill="#1CD6CE" />
                    <path
                        d="M445.268 225.124C453.471 256.352 454.366 296.057 452.153 339.366L441.137 337.989L421.17 255.405L410.154 339.366L397.761 338.678C394.058 293.236 390.454 254.225 396.384 228.565L445.268 225.124Z"
                        fill="#2F2E41" />
                    <path
                        d="M432.581 124.636C429.426 127.995 423.567 126.192 423.156 121.603C423.124 121.247 423.126 120.888 423.163 120.532C423.375 118.5 424.55 116.654 424.269 114.508C424.205 113.974 424.006 113.465 423.69 113.029C421.177 109.664 415.275 114.534 412.903 111.488C411.448 109.62 413.158 106.679 412.042 104.592C410.568 101.837 406.204 103.196 403.467 101.687C400.422 100.008 400.604 95.3381 402.609 92.4975C405.053 89.0334 409.339 87.1849 413.572 86.9185C417.805 86.6521 422.008 87.7958 425.96 89.3351C430.45 91.0841 434.902 93.5012 437.665 97.4473C441.025 102.246 441.348 108.698 439.668 114.31C438.646 117.723 435.157 121.893 432.581 124.636Z"
                        fill="#2F2E41" />
                    <path
                        d="M322.909 282.507H233.404C232.225 282.513 231.092 282.052 230.253 281.224C229.414 280.397 228.937 279.27 228.928 278.092V78.3965C228.937 77.2183 229.414 76.0918 230.253 75.2641C231.092 74.4364 232.225 73.9752 233.404 73.9815H322.909C324.088 73.9752 325.221 74.4364 326.06 75.2641C326.899 76.0918 327.375 77.2183 327.385 78.3965V278.092C327.375 279.27 326.899 280.397 326.06 281.224C325.221 282.052 324.088 282.513 322.909 282.507Z"
                        fill="white" />
                    <path d="M327.385 138.597H228.928V139.973H327.385V138.597Z" fill="#CCCCCC" />
                    <path d="M327.729 217.128H229.272V218.504H327.729V217.128Z" fill="#CCCCCC" />
                    <path d="M261.288 73.9814H259.911V283.195H261.288V73.9814Z" fill="#CCCCCC" />
                    <path d="M295.713 73.9814H294.336V283.195H295.713V73.9814Z" fill="#CCCCCC" />
                </g>
                <defs>
                    <clipPath id="clip0_60_11952">
                        <rect width="599" height="357.961" fill="white" />
                    </clipPath>
                </defs>
            </svg>